<svg width="83" height="83" viewBox="0 0 83 83" fill="none" xmlns="http://www.w3.org/2000/svg">
<path d="M0.859306 53.5427C-6.16149 30.1404 31.7016 1.98502 46.7354 19.4287C56.6772 30.9618 55.941 58.6047 41.5275 69.3227C27.1141 80.0407 5.50028 69.0175 0.859306 53.5427Z" fill="url(#paint0_linear_234_12)"/>
<path d="M0.859306 53.5427C-6.16149 30.1404 31.7016 1.98502 46.7354 19.4287C56.6772 30.9618 55.941 58.6047 41.5275 69.3227C27.1141 80.0407 5.50028 69.0175 0.859306 53.5427Z" fill="white" fill-opacity="0.5"/>
<path fill-rule="evenodd" clip-rule="evenodd" d="M71.2 47.4257C71.2033 47.1151 71.1915 46.8015 71.1638 46.4857L70.3043 36.6613C70.2767 36.3455 70.2339 36.0347 70.1767 35.7294C69.2885 30.9899 64.93 27.6076 60.0258 28.0367L29.6818 30.6914C24.4619 31.1481 20.6005 35.7499 21.0572 40.9699L21.9167 50.7943C22.3734 56.0142 26.9752 59.8756 32.1952 59.4189L62.5392 56.7642C67.4433 56.3351 71.1483 52.2474 71.2 47.4257ZM71.4015 37.3798C72.1379 37.3154 72.8176 37.6468 73.2306 38.1977C73.4532 38.4947 73.5983 38.8554 73.633 39.2523L73.992 43.3562C74.0268 43.7531 73.9465 44.1335 73.7789 44.4646C73.4678 45.0788 72.856 45.5232 72.1196 45.5877L71.4015 37.3798ZM29.987 34.1798C26.6936 34.4679 24.2574 37.3713 24.5456 40.6647L25.4051 50.4891C25.6932 53.7825 28.5966 56.2187 31.89 55.9306L62.234 53.2758C65.5274 52.9877 67.9636 50.0843 67.6755 46.7909L66.8159 36.9665C66.5278 33.6731 63.6244 31.2369 60.331 31.525L29.987 34.1798Z" fill="#21201F"/>
<defs>
<linearGradient id="paint0_linear_234_12" x1="51.8561" y1="27.8978" x2="1.22539" y2="55.2356" gradientUnits="userSpaceOnUse">
<stop stop-color="#FF5C4D"/>
<stop offset="0.25" stop-color="#EB469F"/>
<stop offset="0.72" stop-color="#8341EF"/>
<stop offset="1" stop-color="#3F68F9"/>
</linearGradient>
</defs>
</svg>
